<svg width="201" height="70" viewBox="0 0 201 70" fill="none" xmlns="http://www.w3.org/2000/svg">
<path d="M50.6539 49.3064H43.8154C47.3816 47.0585 50.0165 43.5979 51.2355 39.5612C52.4545 35.5245 52.1756 31.1831 50.45 27.3358C48.7245 23.4884 45.6685 20.3938 41.8441 18.6212C38.0197 16.8486 33.6841 16.5172 29.6349 17.6881C25.5858 18.8589 22.0954 21.4532 19.8058 24.9937C17.5162 28.5343 16.5814 32.7828 17.1734 36.958C17.7654 41.1331 19.8444 44.954 23.0279 47.7177C26.2114 50.4814 30.2852 52.0021 34.5001 52H50.6539C51.0109 52 51.3533 51.8581 51.6057 51.6055C51.8582 51.353 52 51.0104 52 50.6532C52 50.296 51.8582 49.9534 51.6057 49.7009C51.3533 49.4483 51.0109 49.3064 50.6539 49.3064ZM19.6925 34.4916C19.6925 31.5615 20.561 28.6972 22.1881 26.2609C23.8151 23.8246 26.1278 21.9258 28.8335 20.8045C31.5392 19.6832 34.5165 19.3898 37.3889 19.9614C40.2613 20.5331 42.8998 21.944 44.9707 24.0159C47.0415 26.0878 48.4518 28.7276 49.0232 31.6014C49.5945 34.4752 49.3013 37.4539 48.1805 40.161C47.0598 42.868 45.1619 45.1818 42.7268 46.8097C40.2917 48.4375 37.4288 49.3064 34.5001 49.3064C30.5743 49.3019 26.8105 47.7397 24.0345 44.9623C21.2585 42.185 19.697 38.4193 19.6925 34.4916ZM34.5001 30.4512C35.2988 30.4512 36.0796 30.2142 36.7438 29.7703C37.4079 29.3263 37.9255 28.6953 38.2311 27.957C38.5368 27.2187 38.6168 26.4063 38.461 25.6225C38.3051 24.8388 37.9205 24.1188 37.3557 23.5538C36.7909 22.9887 36.0714 22.6039 35.288 22.448C34.5046 22.2921 33.6926 22.3721 32.9547 22.6779C32.2168 22.9837 31.586 23.5016 31.1423 24.1661C30.6985 24.8305 30.4617 25.6117 30.4617 26.4108C30.4617 27.4824 30.8872 28.5101 31.6445 29.2678C32.4019 30.0255 33.4291 30.4512 34.5001 30.4512ZM34.5001 25.064C34.7664 25.064 35.0266 25.143 35.248 25.291C35.4694 25.4389 35.6419 25.6493 35.7438 25.8954C35.8457 26.1415 35.8723 26.4123 35.8204 26.6735C35.7685 26.9348 35.6403 27.1748 35.452 27.3631C35.2637 27.5515 35.0239 27.6797 34.7627 27.7317C34.5016 27.7837 34.2309 27.757 33.985 27.6551C33.739 27.5531 33.5288 27.3805 33.3808 27.159C33.2329 26.9375 33.154 26.6772 33.154 26.4108C33.154 26.0536 33.2958 25.711 33.5483 25.4584C33.8007 25.2059 34.1431 25.064 34.5001 25.064ZM38.5386 42.5724C38.5386 41.7733 38.3017 40.9921 37.858 40.3277C37.4142 39.6632 36.7835 39.1454 36.0456 38.8395C35.3076 38.5337 34.4956 38.4537 33.7123 38.6096C32.9289 38.7655 32.2093 39.1503 31.6445 39.7154C31.0797 40.2805 30.6951 41.0004 30.5393 41.7841C30.3835 42.5679 30.4634 43.3803 30.7691 44.1186C31.0748 44.8569 31.5924 45.4879 32.2565 45.9319C32.9206 46.3758 33.7014 46.6128 34.5001 46.6128C35.5712 46.6128 36.5984 46.1871 37.3557 45.4294C38.1131 44.6717 38.5386 43.644 38.5386 42.5724ZM33.154 42.5724C33.154 42.306 33.2329 42.0456 33.3808 41.8241C33.5288 41.6027 33.739 41.43 33.985 41.3281C34.2309 41.2262 34.5016 41.1995 34.7627 41.2515C35.0239 41.3034 35.2637 41.4317 35.452 41.6201C35.6403 41.8084 35.7685 42.0484 35.8204 42.3096C35.8723 42.5709 35.8457 42.8417 35.7438 43.0878C35.6419 43.3339 35.4694 43.5442 35.248 43.6922C35.0266 43.8402 34.7664 43.9192 34.5001 43.9192C34.1431 43.9192 33.8007 43.7773 33.5483 43.5247C33.2958 43.2722 33.154 42.9296 33.154 42.5724ZM42.577 38.532C43.3757 38.532 44.1565 38.295 44.8206 37.8511C45.4847 37.4071 46.0024 36.7761 46.308 36.0378C46.6137 35.2995 46.6936 34.4871 46.5378 33.7033C46.382 32.9196 45.9974 32.1996 45.4326 31.6346C44.8678 31.0695 44.1482 30.6847 43.3648 30.5288C42.5815 30.3729 41.7695 30.4529 41.0315 30.7587C40.2936 31.0645 39.6629 31.5824 39.2192 32.2469C38.7754 32.9113 38.5386 33.6925 38.5386 34.4916C38.5386 35.5632 38.964 36.5909 39.7214 37.3486C40.4787 38.1063 41.5059 38.532 42.577 38.532ZM42.577 33.1448C42.8432 33.1448 43.1035 33.2238 43.3249 33.3718C43.5462 33.5198 43.7188 33.7301 43.8207 33.9762C43.9226 34.2223 43.9492 34.4931 43.8973 34.7543C43.8453 35.0156 43.7171 35.2556 43.5289 35.4439C43.3406 35.6323 43.1007 35.7605 42.8396 35.8125C42.5785 35.8645 42.3078 35.8378 42.0618 35.7359C41.8159 35.6339 41.6056 35.4613 41.4577 35.2398C41.3098 35.0183 41.2308 34.758 41.2308 34.4916C41.2308 34.1344 41.3727 33.7918 41.6251 33.5393C41.8776 33.2867 42.22 33.1448 42.577 33.1448ZM26.4233 30.4512C25.6245 30.4512 24.8437 30.6881 24.1796 31.1321C23.5155 31.5761 22.9979 32.2071 22.6922 32.9454C22.3866 33.6837 22.3066 34.4961 22.4624 35.2798C22.6182 36.0636 23.0029 36.7835 23.5677 37.3486C24.1324 37.9136 24.852 38.2985 25.6354 38.4544C26.4188 38.6103 27.2308 38.5302 27.9687 38.2244C28.7066 37.9186 29.3373 37.4008 29.7811 36.7363C30.2248 36.0719 30.4617 35.2907 30.4617 34.4916C30.4617 33.42 30.0362 32.3923 29.2789 31.6346C28.5215 30.8769 27.4943 30.4512 26.4233 30.4512ZM26.4233 35.8384C26.157 35.8384 25.8967 35.7594 25.6754 35.6114C25.454 35.4634 25.2815 35.2531 25.1796 35.007C25.0777 34.7609 25.051 34.4901 25.103 34.2288C25.1549 33.9676 25.2831 33.7276 25.4714 33.5393C25.6596 33.3509 25.8995 33.2226 26.1606 33.1707C26.4218 33.1187 26.6924 33.1454 26.9384 33.2473C27.1844 33.3492 27.3946 33.5219 27.5425 33.7433C27.6904 33.9648 27.7694 34.2252 27.7694 34.4916C27.7694 34.8488 27.6276 35.1913 27.3751 35.4439C27.1227 35.6965 26.7803 35.8384 26.4233 35.8384Z" fill="#201D1F"/>
<path d="M84.332 42.204C84.332 43.116 84.368 43.848 84.44 44.4C84.536 44.952 84.704 45.384 84.944 45.696C85.184 46.008 85.52 46.224 85.952 46.344C86.408 46.464 87.008 46.536 87.752 46.56V48H75.26V46.56C76.052 46.536 76.7 46.464 77.204 46.344C77.708 46.224 78.092 46.02 78.356 45.732C78.62 45.444 78.8 45.036 78.896 44.508C78.992 43.98 79.04 43.296 79.04 42.456V25.824C79.04 25.008 78.992 24.336 78.896 23.808C78.824 23.28 78.668 22.872 78.428 22.584C78.188 22.296 77.84 22.092 77.384 21.972C76.952 21.852 76.376 21.768 75.656 21.72V20.28H88.076V21.72C87.26 21.744 86.6 21.816 86.096 21.936C85.616 22.056 85.244 22.272 84.98 22.584C84.716 22.896 84.536 23.328 84.44 23.88C84.368 24.432 84.332 25.164 84.332 26.076V34.068L93.656 24.06C94.208 23.46 94.484 22.956 94.484 22.548C94.484 22.284 94.304 22.08 93.944 21.936C93.608 21.792 92.972 21.72 92.036 21.72V20.28H101.864V21.684C101.336 21.708 100.868 21.756 100.46 21.828C100.076 21.9 99.68 22.056 99.272 22.296C98.888 22.536 98.444 22.884 97.94 23.34C97.46 23.772 96.86 24.36 96.14 25.104L89.732 31.8L100.316 44.688C100.82 45.312 101.372 45.768 101.972 46.056C102.596 46.344 103.388 46.512 104.348 46.56V48H91.028V46.56C92.012 46.536 92.72 46.452 93.152 46.308C93.584 46.164 93.8 45.924 93.8 45.588C93.8 45.468 93.776 45.36 93.728 45.264C93.704 45.144 93.644 45.012 93.548 44.868C93.476 44.7 93.356 44.508 93.188 44.292C93.02 44.052 92.792 43.764 92.504 43.428L86.132 35.58L84.332 37.452V42.204ZM115.986 37.74C113.97 38.652 112.446 39.504 111.414 40.296C110.406 41.064 109.902 41.868 109.902 42.708C109.902 43.404 110.094 43.956 110.478 44.364C110.862 44.772 111.342 44.976 111.918 44.976C112.494 44.976 113.034 44.88 113.538 44.688C114.042 44.472 114.474 44.196 114.834 43.86C115.194 43.524 115.47 43.128 115.662 42.672C115.878 42.192 115.986 41.688 115.986 41.16V37.74ZM115.986 35.832V34.32C115.986 32.928 115.734 31.92 115.23 31.296C114.75 30.648 113.994 30.324 112.962 30.324C112.266 30.324 111.738 30.516 111.378 30.9C111.018 31.26 110.682 31.872 110.37 32.736C110.154 33.336 109.842 33.804 109.434 34.14C109.05 34.476 108.51 34.644 107.814 34.644C107.142 34.644 106.626 34.44 106.266 34.032C105.906 33.624 105.726 33.048 105.726 32.304C105.726 31.152 106.35 30.24 107.598 29.568C108.87 28.896 110.778 28.56 113.322 28.56C116.01 28.56 117.93 29.052 119.082 30.036C120.234 30.996 120.81 32.616 120.81 34.896V42.78C120.81 44.82 121.218 45.84 122.034 45.84C122.49 45.84 122.91 45.684 123.294 45.372L123.834 46.416C123.498 47.016 122.97 47.496 122.25 47.856C121.554 48.192 120.762 48.36 119.874 48.36C118.77 48.36 117.93 48.024 117.354 47.352C116.778 46.68 116.49 45.732 116.49 44.508H116.31C115.614 45.756 114.714 46.704 113.61 47.352C112.506 48 111.246 48.324 109.83 48.324C108.318 48.324 107.106 47.904 106.194 47.064C105.282 46.2 104.826 45.084 104.826 43.716C104.826 42.66 105.294 41.676 106.23 40.764C107.166 39.828 108.726 38.916 110.91 38.028L115.986 35.832ZM133.561 42.42C133.561 43.356 133.597 44.1 133.669 44.652C133.765 45.18 133.945 45.588 134.209 45.876C134.473 46.164 134.857 46.356 135.361 46.452C135.865 46.524 136.537 46.56 137.377 46.56V48H125.353V46.56C126.073 46.512 126.649 46.44 127.081 46.344C127.513 46.248 127.837 46.056 128.053 45.768C128.269 45.48 128.401 45.072 128.449 44.544C128.521 43.992 128.557 43.26 128.557 42.348V37.956C128.557 36.468 128.521 35.28 128.449 34.392C128.377 33.504 128.221 32.82 127.981 32.34C127.741 31.86 127.393 31.548 126.937 31.404C126.505 31.236 125.929 31.152 125.209 31.152V29.892L132.409 28.56L132.985 32.7H133.129C133.777 31.428 134.629 30.42 135.685 29.676C136.741 28.932 137.857 28.56 139.033 28.56C139.945 28.56 140.689 28.788 141.265 29.244C141.841 29.7 142.129 30.276 142.129 30.972C142.129 31.74 141.901 32.388 141.445 32.916C141.013 33.444 140.413 33.708 139.645 33.708C139.285 33.708 138.961 33.636 138.673 33.492C138.385 33.348 138.121 33.192 137.881 33.024C137.665 32.832 137.437 32.664 137.197 32.52C136.981 32.352 136.753 32.268 136.513 32.268C136.057 32.268 135.625 32.568 135.217 33.168C134.809 33.768 134.473 34.572 134.209 35.58C134.017 36.3 133.861 37.116 133.741 38.028C133.621 38.916 133.561 39.804 133.561 40.692V42.42ZM151.095 42.096C151.095 43.056 151.131 43.824 151.203 44.4C151.275 44.976 151.419 45.42 151.635 45.732C151.851 46.044 152.163 46.26 152.571 46.38C152.979 46.476 153.531 46.536 154.227 46.56V48H142.887V46.56C143.559 46.536 144.099 46.464 144.507 46.344C144.939 46.2 145.263 45.984 145.479 45.696C145.719 45.384 145.875 44.964 145.947 44.436C146.043 43.884 146.091 43.188 146.091 42.348V27.48C146.091 26.088 146.067 24.948 146.019 24.06C145.971 23.148 145.911 22.524 145.839 22.188C145.719 21.588 145.443 21.192 145.011 21C144.603 20.808 143.847 20.712 142.743 20.712V19.488L151.095 18.12V42.096ZM166.808 28.56C168.248 28.56 169.604 28.812 170.876 29.316C172.172 29.796 173.3 30.468 174.26 31.332C175.244 32.196 176.012 33.228 176.564 34.428C177.14 35.604 177.428 36.9 177.428 38.316C177.428 39.78 177.14 41.124 176.564 42.348C176.012 43.572 175.244 44.628 174.26 45.516C173.3 46.404 172.172 47.1 170.876 47.604C169.604 48.108 168.248 48.36 166.808 48.36C165.392 48.36 164.048 48.12 162.776 47.64C161.504 47.136 160.388 46.44 159.428 45.552C158.468 44.664 157.712 43.608 157.16 42.384C156.608 41.136 156.332 39.78 156.332 38.316C156.332 36.9 156.608 35.592 157.16 34.392C157.712 33.192 158.468 32.16 159.428 31.296C160.388 30.432 161.504 29.76 162.776 29.28C164.048 28.8 165.392 28.56 166.808 28.56ZM166.808 30.648C166.088 30.648 165.428 30.84 164.828 31.224C164.228 31.584 163.712 32.1 163.28 32.772C162.872 33.444 162.548 34.26 162.308 35.22C162.092 36.156 161.984 37.2 161.984 38.352C161.984 39.552 162.092 40.632 162.308 41.592C162.548 42.552 162.872 43.368 163.28 44.04C163.712 44.712 164.216 45.24 164.792 45.624C165.392 45.984 166.064 46.164 166.808 46.164C167.552 46.164 168.224 45.984 168.824 45.624C169.448 45.24 169.976 44.712 170.408 44.04C170.84 43.344 171.176 42.516 171.416 41.556C171.656 40.596 171.776 39.528 171.776 38.352C171.776 37.2 171.656 36.156 171.416 35.22C171.176 34.284 170.84 33.48 170.408 32.808C169.976 32.112 169.448 31.584 168.824 31.224C168.224 30.84 167.552 30.648 166.808 30.648ZM181.488 33.564C181.224 32.868 180.972 32.316 180.732 31.908C180.492 31.476 180.24 31.152 179.976 30.936C179.736 30.696 179.46 30.54 179.148 30.468C178.86 30.396 178.512 30.36 178.104 30.36V28.92H188.868V30.36C188.268 30.36 187.788 30.384 187.428 30.432C187.092 30.48 186.828 30.552 186.636 30.648C186.468 30.744 186.36 30.876 186.312 31.044C186.264 31.188 186.24 31.356 186.24 31.548C186.24 31.86 186.3 32.22 186.42 32.628C186.54 33.036 186.684 33.444 186.852 33.852L190.272 43.284H190.416L194.268 33.888C194.436 33.48 194.568 33.12 194.664 32.808C194.76 32.472 194.808 32.172 194.808 31.908C194.808 31.38 194.628 30.996 194.268 30.756C193.908 30.516 193.272 30.384 192.36 30.36V28.92H200.316V30.36C199.668 30.36 199.104 30.528 198.624 30.864C198.168 31.2 197.688 31.944 197.184 33.096L190.452 48.36H187.176L181.488 33.564Z" fill="#201D1F"/>
</svg>
